<svg width="90" height="90" fill="none" xmlns="http://www.w3.org/2000/svg">
<path d="M84.25 90L51.375 57.125L57.125 51.375L90 84.25L84.25 90ZM13 84.25C8.58333 79.4167 5.3125 74.0625 3.1875 68.1875C1.0625 62.3125 0 56.3333 0 50.25C0 43.75 1.20833 37.4167 3.625 31.25C6.04167 25.0833 9.70833 19.5417 14.625 14.625C19.5417 9.70833 25.1042 6.04167 31.3125 3.625C37.5208 1.20833 43.875 0 50.375 0C56.4583 0 62.4375 1.0625 68.3125 3.1875C74.1875 5.3125 79.5 8.58333 84.25 13L13 84.25ZM13.375 73.125L22 64.375C20.6667 62.5417 19.3333 60.5625 18 58.4375C16.6667 56.3125 15.4375 54.0625 14.3125 51.6875C13.1875 49.3125 12.25 46.8542 11.5 44.3125C10.75 41.7708 10.25 39.1667 10 36.5C7.75 42.6667 6.97917 48.9583 7.6875 55.375C8.39583 61.7917 10.2917 67.7083 13.375 73.125ZM28 58.75L58.75 27.75C54.9167 24.75 51.0208 22.3958 47.0625 20.6875C43.1042 18.9792 39.3333 17.8542 35.75 17.3125C32.1667 16.7708 28.9792 16.7708 26.1875 17.3125C23.3958 17.8542 21.25 18.875 19.75 20.375C18.25 21.875 17.2917 24.0208 16.875 26.8125C16.4583 29.6042 16.5625 32.7292 17.1875 36.1875C17.8125 39.6458 19.0208 43.3125 20.8125 47.1875C22.6042 51.0625 25 54.9167 28 58.75ZM64.375 22L73.375 13.375C67.875 9.875 61.8958 7.83333 55.4375 7.25C48.9792 6.66667 42.6667 7.58333 36.5 10C39 10.25 41.4792 10.75 43.9375 11.5C46.3958 12.25 48.8125 13.1458 51.1875 14.1875C53.5625 15.2292 55.8542 16.4167 58.0625 17.75C60.2708 19.0833 62.375 20.5 64.375 22Z" fill="#37BD6D"/>
</svg>
