<svg width="120" height="120" viewBox="0 0 120 120" fill="none" xmlns="http://www.w3.org/2000/svg">
<path d="M52.5 110V82.5H37.5L50.25 41.5C50.9167 39.4167 52.1667 37.8125 54 36.6875C55.8333 35.5625 57.8333 35 60 35C62.1667 35 64.1667 35.5625 66 36.6875C67.8333 37.8125 69.0833 39.4167 69.75 41.5L82.5 82.5H67.5V110H52.5ZM60.01 28.25C57.5033 28.25 55.3542 27.3575 53.5625 25.5725C51.7708 23.7874 50.875 21.6416 50.875 19.135C50.875 16.6283 51.7675 14.4792 53.5525 12.6875C55.3376 10.8958 57.4834 10 59.99 10C62.4967 10 64.6458 10.8925 66.4375 12.6775C68.2292 14.4626 69.125 16.6084 69.125 19.115C69.125 21.6217 68.2325 23.7708 66.4475 25.5625C64.6624 27.3542 62.5166 28.25 60.01 28.25Z" fill="#D71616"/>
</svg>
